
<?xml version="1.0" encoding="utf-8"?>
<!-- Generator: Adobe Illustrator 19.2.1, SVG Export Plug-In . SVG Version: 6.00 Build 0)  -->
<svg version="1.1" id="Layer_1" xmlns="http://www.w3.org/2000/svg" xmlns:xlink="http://www.w3.org/1999/xlink" x="0px" y="0px"
	 viewBox="0 0 60 60" enable-background="new 0 0 60 60" xml:space="preserve">
<g>
	<path d="M38.18,26.979c-0.293,0.293-0.293,0.768,0,1.061c1.611,1.611,1.611,4.231,0,5.843c-0.293,0.293-0.293,0.768,0,1.061
		c0.146,0.146,0.338,0.22,0.53,0.22s0.384-0.073,0.53-0.22c2.196-2.195,2.196-5.769,0-7.964
		C38.948,26.687,38.473,26.687,38.18,26.979z"/>
	<path d="M43.009,23.212c-0.293-0.293-0.768-0.293-1.061,0s-0.293,0.768,0,1.061c3.688,3.688,3.688,9.69,0,13.379
		c-0.293,0.293-0.293,0.768,0,1.061c0.146,0.146,0.338,0.22,0.53,0.22s0.384-0.073,0.53-0.22
		C47.283,34.438,47.283,27.485,43.009,23.212z"/>
	<path d="M46.77,19.451c-0.293-0.293-0.768-0.293-1.061,0s-0.293,0.768,0,1.061c2.791,2.791,4.328,6.503,4.328,10.45
		S48.5,38.62,45.709,41.411c-0.293,0.293-0.293,0.768,0,1.061c0.146,0.146,0.338,0.22,0.53,0.22s0.384-0.073,0.53-0.22
		c3.075-3.074,4.768-7.162,4.768-11.51C51.537,26.613,49.844,22.525,46.77,19.451z"/>
	<path d="M50.67,15.551c-0.293-0.293-0.768-0.293-1.061,0s-0.293,0.768,0,1.061c7.912,7.913,7.912,20.788,0,28.7
		c-0.293,0.293-0.293,0.768,0,1.061c0.146,0.146,0.338,0.22,0.53,0.22s0.384-0.073,0.53-0.22
		C59.167,37.875,59.167,24.049,50.67,15.551z"/>
	<path d="M32.967,7.93c-0.002-0.028-0.008-0.055-0.013-0.082C32.754,4.83,25.319,3.25,17.96,3.25c-7.36,0-14.795,1.581-14.995,4.598
		C2.961,7.876,2.954,7.902,2.953,7.93c0,0.014-0.006,0.026-0.006,0.04c0,0.255,0.068,0.495,0.166,0.73
		c1.418,6.346,1.651,39.756,1.653,40.103c0,0.053,0.006,0.104,0.017,0.153c0.033,0.4,0.203,0.767,0.469,1.107l-0.657,2.13
		c-0.036,0.117-0.041,0.241-0.018,0.359c0.208,2.883,6.928,4.198,13.178,4.198h0.205c6.234,0,12.934-1.309,13.176-4.176
		c0.027-0.125,0.023-0.257-0.016-0.382l-0.604-1.958c0.353-0.386,0.579-0.807,0.619-1.275c0.011-0.051,0.017-0.104,0.018-0.157
		c0.002-0.347,0.235-33.758,1.653-40.103c0.098-0.235,0.166-0.475,0.166-0.73C32.973,7.956,32.967,7.944,32.967,7.93z
		 M29.654,48.666c-0.008,0.043-0.012,0.087-0.012,0.132c0,1.018-3.904,2.836-11.683,2.836S6.277,49.815,6.277,48.798
		c0-0.044-0.004-0.088-0.012-0.13c-0.016-2.394-0.226-28.872-1.372-38.252c2.722,1.498,7.915,2.272,13.067,2.272
		c5.152,0,10.344-0.774,13.066-2.272C29.881,19.793,29.671,46.258,29.654,48.666z M17.96,4.75c8.75,0,13.375,2.037,13.501,3.171
		c-0.03,0.108-0.061,0.211-0.09,0.34c-0.687,1.158-5.256,2.927-13.411,2.927c-8.155,0-12.725-1.769-13.411-2.927
		c-0.029-0.128-0.06-0.232-0.09-0.34C4.584,6.787,9.21,4.75,17.96,4.75z M17.96,55.25h-0.205c-7.622,0-11.523-1.746-11.678-2.774
		l0.429-1.39c2.429,1.392,7.052,2.048,11.454,2.048c4.294,0,8.808-0.621,11.281-1.944l0.396,1.286
		C29.483,53.504,25.582,55.25,17.96,55.25z"/>
</g>
</svg>
