<svg xmlns="http://www.w3.org/2000/svg" viewBox="0 0 474.031 225.632" version="1">
  <path d="M222.416.913c-11.9 1.1-16.8 2.5-76 21.4-26.2 8.4-80.3 25.5-91.5 29-36.1 11.2-52.7 16.7-53.9 18-1.3 1.2-1.3 3.9-.3 19.2 8.4 126.9 8 121.5 10.2 123.4 8.3 7.1 105.2 13.3 215.5 13.7 38.7.2 113.1-1.2 144.1-2.8 26.9-1.3 65-4.6 75.6-6.5 4.6-.8 10-1.8 12-2.1 7-1.2 6.6.6 9.7-40.9 6.7-89.9 7.3-101.7 5-104-.8-.9-40.4-13.7-87.9-28.5-47.6-14.9-91.7-28.6-98-30.6-18-5.7-29.6-8.3-41.5-9.4-12-1.1-11.4-1.1-23 .1z"/>
</svg>