<?xml version="1.0" encoding="utf-8"?>
<!-- Generator: Adobe Illustrator 19.2.1, SVG Export Plug-In . SVG Version: 6.00 Build 0)  -->
<svg version="1.1" id="Layer_1" xmlns="http://www.w3.org/2000/svg" xmlns:xlink="http://www.w3.org/1999/xlink" x="0px" y="0px"
	 viewBox="0 0 60 60" enable-background="new 0 0 60 60" xml:space="preserve">
<path d="M57.705,42.192c0-1.754-1.754-3.29-5.214-4.566c-0.388-0.142-0.82,0.056-0.963,0.444c-0.144,0.389,0.056,0.82,0.444,0.963
	c2.691,0.992,4.234,2.144,4.234,3.159c0,1.648-5.106,4.565-16.581,5.656c0.306-0.63,0.595-1.29,0.867-1.979
	c5.913-0.691,11.31-2.071,11.31-4.594c0-1.332-1.449-2.408-4.429-3.29c-0.398-0.118-0.814,0.109-0.932,0.506
	c-0.118,0.397,0.109,0.814,0.506,0.932c2.653,0.785,3.354,1.554,3.354,1.851c0,0.835-3.207,2.193-9.234,3.008
	c0.185-0.552,0.36-1.118,0.523-1.7c3.42-0.604,3.933-1.353,3.933-2.08c0-0.53-0.365-0.97-1.086-1.307
	c-0.374-0.175-0.821-0.013-0.997,0.362c-0.16,0.343-0.039,0.745,0.27,0.946c-0.352,0.149-0.925,0.314-1.71,0.476
	c0.773-3.293,1.204-6.977,1.204-10.894c0-14.438-5.82-25.749-13.25-25.749s-13.25,11.311-13.25,25.749
	c0,3.917,0.431,7.6,1.204,10.894c-0.786-0.162-1.359-0.327-1.711-0.477c0.308-0.201,0.429-0.603,0.269-0.945
	c-0.176-0.375-0.624-0.539-0.997-0.361c-0.719,0.336-1.083,0.776-1.083,1.306c0,0.727,0.513,1.475,3.932,2.08
	c0.163,0.582,0.338,1.148,0.523,1.7c-6.026-0.815-9.234-2.173-9.234-3.008c0-0.319,0.777-1.138,3.719-1.956
	c0.399-0.111,0.633-0.524,0.522-0.923c-0.111-0.399-0.525-0.633-0.923-0.522c-3.242,0.901-4.817,2.014-4.817,3.401
	c0,2.522,5.397,3.903,11.31,4.594c0.272,0.689,0.561,1.349,0.867,1.979C8.811,46.758,3.705,43.841,3.705,42.192
	c0-1.219,2.187-2.6,5.85-3.695c0.397-0.119,0.623-0.537,0.504-0.934c-0.119-0.397-0.538-0.621-0.934-0.504
	c-4.592,1.373-6.92,3.1-6.92,5.132c0,3.841,8.692,6.303,18.898,7.201c2.33,4.023,5.418,6.442,8.852,6.442s6.521-2.419,8.852-6.442
	C49.012,48.495,57.705,46.033,57.705,42.192z M18.205,30.087c0-13.371,5.271-24.249,11.75-24.249s11.75,10.878,11.75,24.249
	c0,4.029-0.481,7.827-1.327,11.174c-2.357,0.345-5.82,0.622-10.423,0.622c-4.602,0-8.065-0.277-10.423-0.623
	C18.686,37.914,18.205,34.115,18.205,30.087z M19.964,42.829c2.756,0.357,6.267,0.554,9.991,0.554c3.725,0,7.235-0.197,9.991-0.554
	c-0.171,0.567-0.352,1.12-0.543,1.655c-2.688,0.292-5.833,0.48-9.447,0.48s-6.76-0.188-9.447-0.48
	C20.315,43.95,20.134,43.397,19.964,42.829z M21.121,46.048c3.175,0.299,6.364,0.416,8.834,0.416s5.659-0.117,8.834-0.416
	c-0.29,0.684-0.597,1.337-0.923,1.95c-2.385,0.177-5.018,0.278-7.911,0.278s-5.527-0.101-7.911-0.278
	C21.718,47.386,21.411,46.732,21.121,46.048z M29.955,54.336c-2.625,0-5.051-1.786-7.009-4.8c2.309,0.159,4.671,0.241,7.009,0.241
	s4.7-0.082,7.009-0.241C35.006,52.55,32.579,54.336,29.955,54.336z"/>
</svg>
