<?xml version="1.0" encoding="UTF-8" standalone="no"?>
<svg
   xmlns:dc="http://purl.org/dc/elements/1.1/"
   xmlns:cc="http://creativecommons.org/ns#"
   xmlns:rdf="http://www.w3.org/1999/02/22-rdf-syntax-ns#"
   xmlns:svg="http://www.w3.org/2000/svg"
   xmlns="http://www.w3.org/2000/svg"
   id="svg8"
   preserveAspectRatio="xMidYMid meet"
   viewBox="0 0 474.03104 225.63202"
   height="225.63202pt"
   width="474.03104pt"
   version="1.0">
  <defs
     id="defs12" />
  <metadata
     id="metadata2">
Created by potrace 1.15, written by Peter Selinger 2001-2017
<rdf:RDF>
  <cc:Work
     rdf:about="">
    <dc:format>image/svg+xml</dc:format>
    <dc:type
       rdf:resource="http://purl.org/dc/dcmitype/StillImage" />
  </cc:Work>
</rdf:RDF>
</metadata>
  <g
     style="fill:#000000;stroke:none"
     id="g6"
     transform="matrix(0.1,0,0,-0.1,-6.0838211,231.81291)">
    <path
       id="path4"
       d="M 2285,2309 C 2166,2298 2117,2284 1525,2095 1263,2011 722,1840 610,1805 249,1693 83,1638 71,1625 58,1613 58,1586 68,1433 152,164 148,218 170,199 253,128 1222,66 2325,62 c 387,-2 1131,12 1441,28 269,13 650,46 756,65 46,8 100,18 120,21 70,12 66,-6 97,409 67,899 73,1017 50,1040 -8,9 -404,137 -879,285 -476,149 -917,286 -980,306 -180,57 -296,83 -415,94 -120,11 -114,11 -230,-1 z" />
  </g>
</svg>
